<?xml version="1.0" encoding="utf-8"?>
<!-- Generator: Adobe Illustrator 20.0.0, SVG Export Plug-In . SVG Version: 6.00 Build 0)  -->
<svg version="1.1" id="Layer_1" xmlns="http://www.w3.org/2000/svg" xmlns:xlink="http://www.w3.org/1999/xlink" x="0px" y="0px"
	 viewBox="0 0 91.2 31.7" style="enable-background:new 0 0 91.2 31.7;" xml:space="preserve">
<style type="text/css">
	.st0{fill:#FFFFFF;}
</style>
<title>Artboard 1</title>
<path class="st0" d="M1.1,4.1h0.6v5.4h0.6v0.5H1.5c-0.4,0-0.5-0.1-0.5-0.5L1.1,4.1z"/>
<path class="st0" d="M4.2,4.1v4.3c0,0.9,0.8,1.2,1.6,1.2s1.6-0.4,1.6-1.2V1.8H8v6.6c0,1.2-1.1,1.8-2.2,1.8S3.6,9.6,3.6,8.4V4.1H4.2z
	"/>
<path class="st0" d="M3,2.7h3.8L6.6,3.2H3V2.7z"/>
<path class="st0" d="M12.3,4c1.3,0,2.2,0.6,2.2,2.5V10h-0.6V6.6c0-1.6-0.7-2-1.6-2c-1.4,0-2,1.1-2,2.8c0,1.5,0.5,2.3,1.5,2.3
	c0.4,0,0.8-0.1,1.1-0.3l0.2,0.5c-0.4,0.2-0.8,0.4-1.3,0.4c-1.4,0-2.1-1.1-2.1-2.9C9.6,5,10.7,4,12.3,4z"/>
<path class="st0" d="M17,4.1v4.3c0,0.9,0.8,1.2,1.6,1.2s1.6-0.4,1.6-1.2V4.1h0.6v4.3c0,1.2-1.1,1.8-2.2,1.8s-2.2-0.5-2.2-1.8V4.1H17
	z"/>
<path class="st0" d="M18.8,2.7h2.5l-0.2,0.5h-2.9v-1h-0.7V1.7h0.8c0.4,0,0.5,0.1,0.5,0.5L18.8,2.7z"/>
<path class="st0" d="M24.9,10.1h-0.6V5.9c0-0.9-0.4-1.3-1.1-1.3c-0.4,0-0.7,0.1-1,0.2l-0.1-0.5C22.4,4.1,22.9,4,23.3,4
	c1,0,1.6,0.6,1.6,1.9V10.1z"/>
<path class="st0" d="M27.4,4.1v3.9c0,1.1,0.6,1.6,1.4,1.6c1,0,1.8-0.8,1.8-2.3V4.1h0.6v4.1c0,0.6,0,1.2,0.1,1.8h-0.6
	c-0.1-0.3-0.1-0.7-0.1-1c-0.4,0.7-1.1,1.1-1.9,1.1c-1,0-1.9-0.5-1.9-2.1V4.1H27.4z"/>
<path class="st0" d="M33.2,3.5c-0.1-1,0.1-2.1,0.7-2.9h-2.1L32.1,0h2.7v0.3c-0.7,0.9-1,2-1,3.1v6.1h0.7v0.5h-0.8
	c-0.4,0-0.5-0.1-0.5-0.5L33.2,3.5z"/>
<path class="st0" d="M38.1,6.8v0.5h-1.7v0.3c-0.1,0.9,0.5,1.8,1.5,1.9c0.1,0,0.2,0,0.2,0c1.2,0,2-0.7,2-2.6s-0.9-2.5-1.8-2.5
	c-0.8-0.1-1.5,0.4-1.7,1.2L36,5.5c0.3-1,1.2-1.6,2.2-1.5c1.4,0,2.4,0.8,2.4,3s-0.9,3.1-2.6,3.1c-1.3,0-2.3-0.8-2.3-2.6V7.3
	c0-0.4,0.1-0.5,0.5-0.5H38.1z"/>
<path class="st0" d="M42.4,6c0-0.6,0-1.2-0.1-1.8h0.6c0.1,0.3,0.1,0.7,0.1,1C43.3,4.5,44.1,4,44.9,4c1,0,1.8,0.5,1.8,2.1V10h-0.6
	V6.1c0-1.1-0.5-1.6-1.4-1.6S43,5.4,43,6.9v3.2h-0.6L42.4,6z"/>
<path class="st0" d="M42.6,3.2l0.2-0.5h3.3v-1h0.6v1.5H42.6z"/>
<path class="st0" d="M52.8,10.1h-0.6V7.5c-0.5-0.1-1-0.2-1.6-0.2c-1.3,0-1.8,0.5-1.8,1.2c-0.1,0.5,0.3,1.1,0.8,1.1
	c0.1,0,0.2,0,0.3,0c0.3,0,0.7-0.1,1-0.2l0.2,0.5c-0.4,0.2-0.7,0.3-1.1,0.3c-0.9,0.1-1.6-0.5-1.7-1.4c0-0.1,0-0.2,0-0.3
	c0-1,0.7-1.8,2.4-1.8c0.5,0,1,0.1,1.5,0.2V6.1c0.1-0.8-0.5-1.5-1.3-1.6c-0.1,0-0.1,0-0.2,0C50,4.5,49.3,5,49.1,5.7l-0.6-0.2
	c0.3-1,1.2-1.6,2.2-1.5c1.1-0.1,2,0.7,2.1,1.7c0,0.1,0,0.2,0,0.3V10.1z"/>
<path class="st0" d="M57,10.1h-0.6V5.9c0-0.9-0.4-1.3-1.1-1.3c-0.4,0-0.7,0.1-1,0.2l-0.2-0.5C54.5,4.1,54.9,4,55.4,4
	c1,0,1.7,0.6,1.7,1.9L57,10.1z"/>
<path class="st0" d="M61.3,4c1.3,0,2.2,0.6,2.2,2.5V10h-0.6V6.6c0-1.6-0.7-2-1.6-2c-1.4,0-2,1.1-2,2.8c0,1.5,0.5,2.3,1.5,2.3
	c0.4,0,0.8-0.1,1.1-0.3l0.2,0.5c-0.4,0.2-0.8,0.4-1.3,0.4c-1.4,0-2.1-1.1-2.1-2.9C58.7,5,59.7,4,61.3,4z"/>
<path class="st0" d="M69.2,6.3c0-1.2-0.4-1.8-1.7-1.8c-0.4,0-0.9,0.1-1.3,0.2L66.7,6C66.1,6.4,66,6.8,66,7.7v2.5h-0.6V7.5
	c0-0.9,0.1-1.2,0.6-1.7l-0.8-1.4C66,4.2,66.7,4,67.4,4c1.8,0,2.3,0.8,2.3,2.3V10h-0.6V6.3z"/>
<path class="st0" d="M75.1,5c-0.5-0.3-1.1-0.4-1.7-0.4c-0.7,0-1.3,0.3-1.3,1c0,1.5,3.3,0.6,3.3,2.9c0,1.2-1,1.7-2,1.7
	c-0.7,0-1.4-0.2-2-0.5l0.2-0.5c0.6,0.3,1.2,0.5,1.9,0.5c0.8,0,1.4-0.3,1.4-1.2c0-1.7-3.3-0.7-3.3-2.9c0-1.2,0.9-1.6,1.9-1.6
	c0.6,0,1.3,0.2,1.9,0.4L75.1,5z"/>
<path class="st0" d="M77.4,5.3h1.7v0.5h-1.8c-0.4,0-0.5-0.1-0.5-0.5V4.7h0.6V5.3z M77.4,8.6h1.7v0.5h-1.8c-0.4,0-0.5-0.1-0.5-0.5
	V7.9h0.6V8.6z"/>
<path class="st0" d="M81.1,4.1v4.3c0,0.9,0.8,1.2,1.6,1.2s1.6-0.4,1.6-1.2V4.1h0.6v4.3c0,1.2-1.1,1.8-2.2,1.8s-2.2-0.5-2.2-1.8V4.1
	H81.1z"/>
<path class="st0" d="M82.9,2.7h2.8l-0.2,0.5h-2.7c-0.4,0-0.5-0.1-0.5-0.4v-1h0.6V2.7z"/>
<path class="st0" d="M87.9,10.1c-0.2,0-0.3-0.1-0.3-0.2L86.3,7H87l1.1,2.5h0.1c1.2,0,1.9-0.8,1.9-2.5s-0.4-2.3-1.7-2.3h-0.4V4.1h0.4
	c1.7,0,2.3,1,2.3,2.9c0,2-0.9,3-2.5,3L87.9,10.1z"/>
<g id="IT_Openhouse">
	<path class="st0" d="M0,13.5v17.4h3.1V13.5H0z"/>
	<path class="st0" d="M4.8,13.5v3.1H11v14.2h3.1V16.6h6.2v-3.1H4.8z"/>
	<path class="st0" d="M23.2,19v-5.6H22v6.9h4.8V19H23.2z"/>
	<path class="st0" d="M31.8,13.4h-1.3l-2.8,6.9h1.3l0.6-1.5h3l0.6,1.5h1.3L31.8,13.4z M30.2,17.6l1-2.5l1,2.5H30.2z"/>
	<path class="st0" d="M40.8,15.1c-0.3-0.5-0.7-0.9-1.2-1.2c-0.5-0.3-1.1-0.5-1.7-0.4h-2.5v6.9h2.5c0.6,0,1.2-0.1,1.7-0.5
		c0.5-0.3,0.9-0.7,1.2-1.2C41.4,17.5,41.4,16.2,40.8,15.1z M39.7,18c-0.2,0.3-0.4,0.6-0.8,0.8c-0.3,0.2-0.7,0.3-1.1,0.3h-1.3v-4.4
		h1.3c0.4,0,0.8,0.1,1.1,0.3c0.3,0.2,0.6,0.5,0.8,0.8C40.1,16.5,40.1,17.3,39.7,18L39.7,18z"/>
	<path class="st0" d="M48.5,13.4h-1.8l-3,2.8v-2.8h-1.2v6.9h1.2v-2.4l0.7-0.6l2.5,3h1.6l-3.3-3.8L48.5,13.4z"/>
	<path class="st0" d="M53.3,17.4c0.4-0.1,0.8-0.4,1.1-0.7c0.3-0.4,0.4-0.8,0.4-1.2c0-0.4-0.1-0.7-0.3-1c-0.2-0.3-0.4-0.6-0.7-0.7
		c-0.3-0.2-0.6-0.3-1-0.3h-3.3v6.9h1.2v-2.9h1.1l2,2.8h1.5L53.3,17.4z M50.8,16.2v-1.6h2c0.2,0,0.4,0.1,0.6,0.2
		c0.2,0.2,0.2,0.4,0.2,0.6c0,0.2-0.1,0.4-0.2,0.6c-0.2,0.1-0.4,0.2-0.6,0.2H50.8z"/>
	<path class="st0" d="M60,13.4h-1.3l-2.8,6.9h1.3l0.6-1.5h3l0.6,1.5h1.3L60,13.4z M58.3,17.6l1-2.5l1,2.5H58.3z"/>
	<path class="st0" d="M68.9,17.4c-0.1-0.3-0.3-0.5-0.5-0.7c0.3-0.4,0.4-0.8,0.4-1.2c0-0.4-0.1-0.7-0.3-1c-0.2-0.3-0.4-0.6-0.7-0.7
		c-0.3-0.2-0.6-0.3-1-0.3h-3.3v6.9h3.6c0.4,0,0.7-0.1,1-0.3c0.3-0.2,0.6-0.4,0.7-0.7C69.1,18.7,69.2,18,68.9,17.4L68.9,17.4z
		 M64.8,14.7h2c0.2,0,0.4,0.1,0.6,0.2c0.1,0.2,0.2,0.4,0.2,0.6c0,0.2-0.1,0.4-0.2,0.6c-0.1,0.1-0.4,0.2-0.6,0.2h-2V14.7z M67.7,18.8
		c-0.1,0.1-0.4,0.2-0.6,0.2h-2.3v-1.6h2.3c0.2,0,0.4,0.1,0.6,0.2c0.1,0.1,0.2,0.4,0.2,0.6C67.9,18.5,67.8,18.7,67.7,18.8z"/>
	<path class="st0" d="M73.8,13.4h-1.3l-2.8,6.9h1.3l0.6-1.5h3l0.6,1.5h1.3L73.8,13.4z M72.2,17.6l1-2.5l1,2.5H72.2z"/>
	<path class="st0" d="M82.1,13.4v4.9l-3.4-4.9h-1.4v6.9h1.2v-4.9l3.4,4.9h1.4v-6.9H82.1z"/>
	<path class="st0" d="M87.8,16.6v1.2h1.8c0,0.2-0.1,0.4-0.3,0.6c-0.2,0.2-0.4,0.4-0.6,0.5c-0.3,0.2-0.6,0.3-0.9,0.2
		c-0.4,0-0.8-0.1-1.1-0.3c-0.3-0.2-0.6-0.5-0.8-0.9c-0.4-0.8-0.4-1.7,0-2.4c0.2-0.3,0.4-0.6,0.8-0.9c0.3-0.2,0.7-0.3,1.1-0.3
		c0.3,0,0.6,0.1,0.9,0.2c0.3,0.1,0.5,0.3,0.7,0.6l1-0.8c-0.6-0.8-1.6-1.3-2.6-1.3c-0.6,0-1.2,0.2-1.7,0.5c-0.5,0.3-1,0.7-1.3,1.3
		c-0.6,1.1-0.6,2.5,0,3.6c0.3,0.6,0.7,1,1.2,1.4c0.5,0.3,1.1,0.5,1.7,0.5c0.7,0,1.3-0.2,1.8-0.6v0.4h1.2v-3.7H87.8z"/>
	<path class="st0" d="M28.6,24.8c-0.3-0.6-0.8-1.1-1.4-1.5c-0.6-0.4-1.3-0.6-2-0.5v1.4c0.5,0,0.9,0.1,1.3,0.4c0.4,0.2,0.7,0.6,0.9,1
		c0.2,0.4,0.3,0.9,0.3,1.4c0,0.5-0.1,1-0.3,1.4c-0.2,0.4-0.5,0.8-0.9,1c-0.8,0.5-1.8,0.5-2.6,0c-0.4-0.2-0.7-0.6-0.9-1
		c-0.2-0.4-0.3-0.9-0.3-1.3h-1.4c0,0.7,0.2,1.4,0.5,2c0.3,0.6,0.8,1.1,1.4,1.5c1.2,0.7,2.8,0.7,4,0c0.6-0.4,1.1-0.9,1.4-1.5
		C29.3,27.7,29.3,26.1,28.6,24.8L28.6,24.8z"/>
	<path class="st0" d="M36.2,24.1c-0.2-0.4-0.5-0.6-0.8-0.8C35,23.1,34.6,23,34.2,23h-3.8v7.9h1.4v-6.5h2.4c0.2,0,0.5,0.1,0.7,0.2
		c0.3,0.4,0.3,0.9,0,1.3c-0.2,0.2-0.4,0.3-0.7,0.2h-1.3v1.4h1.3c0.4,0,0.8-0.1,1.2-0.3c0.4-0.2,0.6-0.5,0.8-0.8
		C36.6,25.8,36.6,24.9,36.2,24.1z"/>
	<path class="st0" d="M43.2,24.4V23h-5.5v7.9h5.5v-1.4h-4.1v-1.8h4.1v-1.4h-4.1v-1.8H43.2z"/>
	<path class="st0" d="M58.3,23v3.2h-3.9V23h-1.4v7.9h1.4v-3.3h3.9v3.2h1.4V23H58.3z"/>
	<path class="st0" d="M68.4,24.8c-0.3-0.6-0.8-1.1-1.4-1.5c-0.6-0.4-1.3-0.6-2-0.5v1.4c0.5,0,0.9,0.1,1.3,0.4c0.4,0.2,0.7,0.6,0.9,1
		c0.2,0.4,0.3,0.9,0.3,1.4c0,0.5-0.1,1-0.3,1.4c-0.2,0.4-0.5,0.8-0.9,1c-0.8,0.5-1.8,0.5-2.6,0c-0.4-0.2-0.7-0.6-0.9-1
		c-0.2-0.4-0.3-0.9-0.3-1.4h-1.4c0,0.7,0.2,1.5,0.5,2.1c0.3,0.6,0.8,1.1,1.4,1.5c1.2,0.7,2.8,0.7,4,0c0.6-0.4,1.1-0.9,1.4-1.5
		C69.1,27.7,69.1,26.1,68.4,24.8L68.4,24.8z"/>
	<path class="st0" d="M75.7,23v5c0,0.3-0.1,0.6-0.3,0.9c-0.2,0.3-0.4,0.5-0.7,0.6c-0.7,0.3-1.4,0.3-2.1,0c-0.3-0.1-0.6-0.3-0.7-0.6
		c-0.2-0.2-0.3-0.5-0.3-0.9v-5h-1.4v5c0,0.6,0.2,1.1,0.5,1.6c0.3,0.5,0.7,0.9,1.2,1.1c1.1,0.5,2.4,0.5,3.6,0
		c0.5-0.3,0.9-0.6,1.2-1.1c0.3-0.5,0.5-1,0.4-1.6v-5H75.7z"/>
	<path class="st0" d="M84.2,27.5c-0.2-0.3-0.5-0.6-0.9-0.9c-0.4-0.2-0.8-0.4-1.3-0.5l-0.6-0.1L81,26h-0.1l0,0
		c-0.3,0-0.5-0.2-0.7-0.3c-0.2-0.1-0.3-0.3-0.3-0.5c0-0.3,0.2-0.5,0.5-0.6c0.3-0.2,0.7-0.3,1.1-0.3c0.3,0,0.7,0.1,1,0.2
		c0.2,0.1,0.4,0.3,0.5,0.5l1.3-0.5c-0.2-0.5-0.6-0.9-1.1-1.2c-0.5-0.3-1.2-0.5-1.8-0.5c-0.5,0-1,0.1-1.5,0.3
		c-0.4,0.2-0.8,0.5-1.1,0.8c-0.3,0.3-0.4,0.7-0.4,1.2c0,0.4,0.1,0.7,0.3,1c0.2,0.3,0.5,0.6,0.8,0.8c0.3,0.2,0.7,0.4,1.2,0.5
		c0.2,0.1,0.4,0.1,0.6,0.1h0.2l0.4,0.1c0.3,0,0.7,0.2,0.9,0.4c0.2,0.1,0.4,0.4,0.4,0.6c0,0.2-0.1,0.4-0.2,0.5
		c-0.2,0.2-0.4,0.3-0.6,0.4c-0.3,0.1-0.6,0.2-0.9,0.2c-0.4,0-0.8-0.1-1.2-0.3c-0.3-0.1-0.4-0.3-0.5-0.6l-1.4,0.4
		c0.1,0.4,0.3,0.7,0.6,1c0.3,0.3,0.7,0.5,1.1,0.7c0.4,0.2,0.9,0.2,1.4,0.2c0.5,0,1.1-0.2,1.5-0.4c0.5-0.2,0.8-0.5,1.2-0.9
		C84.7,29.2,84.7,28.2,84.2,27.5L84.2,27.5z"/>
	<path class="st0" d="M91.2,24.4V23h-5.5v7.9h5.5v-1.4h-4.1v-1.8h4.1v-1.4h-4.1v-1.8H91.2z"/>
	<path class="st0" d="M51.1,24.4c-0.3-0.5-0.7-0.9-1.2-1.1c-1.1-0.5-2.4-0.5-3.5,0c-0.5,0.2-1,0.6-1.3,1.1c-0.3,0.5-0.4,1-0.4,1.6v5
		H46v-5c0-0.3,0.1-0.6,0.3-0.9c0.2-0.3,0.4-0.5,0.7-0.6c0.7-0.3,1.4-0.3,2.1,0c0.3,0.1,0.6,0.3,0.7,0.6c0.2,0.3,0.3,0.6,0.3,0.9v5
		h1.4v-5C51.6,25.4,51.4,24.9,51.1,24.4z"/>
	<circle class="st0" cx="47.3" cy="26.9" r="0.8"/>
</g>
</svg>
